<svg viewBox="0 0 16 15" fill="none" xmlns="http://www.w3.org/2000/svg">
<path d="M4.06131 8.99265L3.68372 9.32041L4.06131 8.99264L1.31377 5.82751L5.39699 4.88183C5.58165 4.83906 5.74108 4.72323 5.83882 4.56082L8 0.969678L10.1612 4.56082C10.1612 4.56082 10.1612 4.56082 10.1612 4.56082C10.2589 4.72324 10.4184 4.83906 10.603 4.88183L14.6862 5.82751L11.9387 8.99264C11.8144 9.13579 11.7535 9.3232 11.7699 9.51204L12.1323 13.6876L8.27306 12.0527L8.07802 12.5131L8.27306 12.0527C8.09853 11.9787 7.90147 11.9787 7.72694 12.0527L7.92198 12.5131L7.72694 12.0527L3.86768 13.6876L4.23007 9.51204C4.24646 9.3232 4.18556 9.13579 4.06131 8.99265ZM3.40868 13.8821C3.40881 13.8821 3.40893 13.882 3.40906 13.8819L3.40868 13.8821Z" stroke="#FF9F66" fill="currentColor"/>
</svg>
